<mxfile host="www.draw.io" modified="2019-12-17T22:49:02.263Z" agent="Mozilla/5.0 (Macintosh; Intel Mac OS X 10_15_1) AppleWebKit/537.36 (KHTML, like Gecko) Chrome/78.0.3904.108 Safari/537.36" etag="INPhKlf6Nk7kzP0Ho8K3" version="12.4.2" type="github" pages="18">
  <diagram id="3zC5cuCDgjKP6a8tNy6s" name="01 - disclaimer">
    <mxGraphModel dx="747" dy="359" grid="1" gridSize="10" guides="1" tooltips="1" connect="1" arrows="1" fold="1" page="1" pageScale="1" pageWidth="1920" pageHeight="1200" math="0" shadow="0">
      <root>
        <mxCell id="0"/>
        <mxCell id="1" parent="0"/>
        <mxCell id="0rwTF0KXWspOiLd7BvWx-3" style="edgeStyle=orthogonalEdgeStyle;rounded=0;orthogonalLoop=1;jettySize=auto;html=1;exitX=0.5;exitY=1;exitDx=0;exitDy=0;fontSize=17;" edge="1" parent="1" source="0rwTF0KXWspOiLd7BvWx-1" target="0rwTF0KXWspOiLd7BvWx-2">
          <mxGeometry relative="1" as="geometry"/>
        </mxCell>
        <mxCell id="0rwTF0KXWspOiLd7BvWx-1" value="Optional App!" style="rounded=0;whiteSpace=wrap;html=1;fillColor=#dae8fc;strokeColor=#6c8ebf;fontSize=27;" vertex="1" parent="1">
          <mxGeometry x="490" y="220" width="270" height="100" as="geometry"/>
        </mxCell>
        <mxCell id="0rwTF0KXWspOiLd7BvWx-5" style="edgeStyle=orthogonalEdgeStyle;rounded=0;orthogonalLoop=1;jettySize=auto;html=1;exitX=0.5;exitY=1;exitDx=0;exitDy=0;fontSize=17;" edge="1" parent="1" source="0rwTF0KXWspOiLd7BvWx-2" target="0rwTF0KXWspOiLd7BvWx-4">
          <mxGeometry relative="1" as="geometry"/>
        </mxCell>
        <mxCell id="0rwTF0KXWspOiLd7BvWx-2" value="This next app will be similar to the last two, but presented differently" style="rounded=0;whiteSpace=wrap;html=1;fontSize=17;" vertex="1" parent="1">
          <mxGeometry x="490" y="353" width="270" height="60" as="geometry"/>
        </mxCell>
        <mxCell id="0rwTF0KXWspOiLd7BvWx-4" value="I will tell you each step that needs to be implemented, you&#39;ll take a shot at implementing it, then we&#39;ll solve it together" style="rounded=0;whiteSpace=wrap;html=1;fontSize=17;" vertex="1" parent="1">
          <mxGeometry x="490" y="450" width="270" height="90" as="geometry"/>
        </mxCell>
      </root>
    </mxGraphModel>
  </diagram>
  <diagram id="ToNqnjSojEKyG6_L5J9U" name="02 - mockup">
    <mxGraphModel dx="996" dy="478" grid="1" gridSize="10" guides="1" tooltips="1" connect="1" arrows="1" fold="1" page="1" pageScale="1" pageWidth="1920" pageHeight="1200" math="0" shadow="0">
      <root>
        <mxCell id="kJL3GemzY2xbFpWmF57N-0"/>
        <mxCell id="kJL3GemzY2xbFpWmF57N-1" parent="kJL3GemzY2xbFpWmF57N-0"/>
        <mxCell id="kJL3GemzY2xbFpWmF57N-2" value="" style="strokeWidth=1;shadow=0;dashed=0;align=center;html=1;shape=mxgraph.mockup.containers.browserWindow;rSize=0;strokeColor=#666666;strokeColor2=#008cff;strokeColor3=#c4c4c4;mainText=,;recursiveResize=0;fontSize=17;" vertex="1" parent="kJL3GemzY2xbFpWmF57N-1">
          <mxGeometry x="310" y="170" width="550" height="380" as="geometry"/>
        </mxCell>
        <mxCell id="kJL3GemzY2xbFpWmF57N-3" value="Page 1" style="strokeWidth=1;shadow=0;dashed=0;align=center;html=1;shape=mxgraph.mockup.containers.anchor;fontSize=17;fontColor=#666666;align=left;" vertex="1" parent="kJL3GemzY2xbFpWmF57N-2">
          <mxGeometry x="60" y="12" width="110" height="26" as="geometry"/>
        </mxCell>
        <mxCell id="kJL3GemzY2xbFpWmF57N-4" value="https://www.draw.io" style="strokeWidth=1;shadow=0;dashed=0;align=center;html=1;shape=mxgraph.mockup.containers.anchor;rSize=0;fontSize=17;fontColor=#666666;align=left;" vertex="1" parent="kJL3GemzY2xbFpWmF57N-2">
          <mxGeometry x="130" y="60" width="250" height="26" as="geometry"/>
        </mxCell>
        <mxCell id="kJL3GemzY2xbFpWmF57N-5" value="" style="rounded=0;whiteSpace=wrap;html=1;fontSize=17;" vertex="1" parent="kJL3GemzY2xbFpWmF57N-2">
          <mxGeometry x="130" y="120" width="290" height="210" as="geometry"/>
        </mxCell>
        <mxCell id="kJL3GemzY2xbFpWmF57N-6" value="Typing Challenge" style="text;html=1;strokeColor=none;fillColor=none;align=center;verticalAlign=middle;whiteSpace=wrap;rounded=0;fontSize=19;fontStyle=1" vertex="1" parent="kJL3GemzY2xbFpWmF57N-2">
          <mxGeometry x="187.5" y="130" width="175" height="20" as="geometry"/>
        </mxCell>
        <mxCell id="kJL3GemzY2xbFpWmF57N-12" value="Lorem ipsum dolor sit amet" style="text;html=1;strokeColor=none;fillColor=none;align=center;verticalAlign=middle;whiteSpace=wrap;rounded=0;fontSize=17;fontStyle=2" vertex="1" parent="kJL3GemzY2xbFpWmF57N-2">
          <mxGeometry x="162.5" y="175" width="225" height="30" as="geometry"/>
        </mxCell>
        <mxCell id="kJL3GemzY2xbFpWmF57N-13" value="Lorem ipsum dolor sit amet" style="rounded=0;whiteSpace=wrap;html=1;fontSize=17;" vertex="1" parent="kJL3GemzY2xbFpWmF57N-2">
          <mxGeometry x="170" y="240" width="210" height="40" as="geometry"/>
        </mxCell>
      </root>
    </mxGraphModel>
  </diagram>
  <diagram name="03 - typing" id="ml-E4Vk8qamDuQay9fMO">
    <mxGraphModel dx="996" dy="478" grid="1" gridSize="10" guides="1" tooltips="1" connect="1" arrows="1" fold="1" page="1" pageScale="1" pageWidth="1920" pageHeight="1200" math="0" shadow="0">
      <root>
        <mxCell id="6HSiybdemevKV44agzi7-0"/>
        <mxCell id="6HSiybdemevKV44agzi7-1" parent="6HSiybdemevKV44agzi7-0"/>
        <mxCell id="6HSiybdemevKV44agzi7-2" value="" style="strokeWidth=1;shadow=0;dashed=0;align=center;html=1;shape=mxgraph.mockup.containers.browserWindow;rSize=0;strokeColor=#666666;strokeColor2=#008cff;strokeColor3=#c4c4c4;mainText=,;recursiveResize=0;fontSize=17;" vertex="1" parent="6HSiybdemevKV44agzi7-1">
          <mxGeometry x="310" y="170" width="550" height="380" as="geometry"/>
        </mxCell>
        <mxCell id="6HSiybdemevKV44agzi7-3" value="Page 1" style="strokeWidth=1;shadow=0;dashed=0;align=center;html=1;shape=mxgraph.mockup.containers.anchor;fontSize=17;fontColor=#666666;align=left;" vertex="1" parent="6HSiybdemevKV44agzi7-2">
          <mxGeometry x="60" y="12" width="110" height="26" as="geometry"/>
        </mxCell>
        <mxCell id="6HSiybdemevKV44agzi7-4" value="https://www.draw.io" style="strokeWidth=1;shadow=0;dashed=0;align=center;html=1;shape=mxgraph.mockup.containers.anchor;rSize=0;fontSize=17;fontColor=#666666;align=left;" vertex="1" parent="6HSiybdemevKV44agzi7-2">
          <mxGeometry x="130" y="60" width="250" height="26" as="geometry"/>
        </mxCell>
        <mxCell id="6HSiybdemevKV44agzi7-5" value="" style="rounded=0;whiteSpace=wrap;html=1;fontSize=17;" vertex="1" parent="6HSiybdemevKV44agzi7-2">
          <mxGeometry x="130" y="120" width="290" height="210" as="geometry"/>
        </mxCell>
        <mxCell id="6HSiybdemevKV44agzi7-6" value="Typing Challenge" style="text;html=1;strokeColor=none;fillColor=none;align=center;verticalAlign=middle;whiteSpace=wrap;rounded=0;fontSize=19;fontStyle=1" vertex="1" parent="6HSiybdemevKV44agzi7-2">
          <mxGeometry x="187.5" y="130" width="175" height="20" as="geometry"/>
        </mxCell>
        <mxCell id="6HSiybdemevKV44agzi7-7" value="&lt;font color=&quot;#33ff33&quot;&gt;Lorem&lt;/font&gt; &lt;font color=&quot;#ff0000&quot;&gt;ipsum d&lt;/font&gt;olor sit amet" style="text;html=1;strokeColor=none;fillColor=none;align=center;verticalAlign=middle;whiteSpace=wrap;rounded=0;fontSize=17;fontStyle=2" vertex="1" parent="6HSiybdemevKV44agzi7-2">
          <mxGeometry x="162.5" y="175" width="225" height="30" as="geometry"/>
        </mxCell>
        <mxCell id="6HSiybdemevKV44agzi7-8" value="&amp;nbsp;Lorem kalksdj" style="rounded=0;whiteSpace=wrap;html=1;fontSize=17;align=left;" vertex="1" parent="6HSiybdemevKV44agzi7-2">
          <mxGeometry x="170" y="240" width="210" height="40" as="geometry"/>
        </mxCell>
      </root>
    </mxGraphModel>
  </diagram>
  <diagram name="04 - final" id="qqhzMdr8_CJSgob6svLd">
    <mxGraphModel dx="996" dy="478" grid="1" gridSize="10" guides="1" tooltips="1" connect="1" arrows="1" fold="1" page="1" pageScale="1" pageWidth="1920" pageHeight="1200" math="0" shadow="0">
      <root>
        <mxCell id="Sdiq3zvMLhk7DjWIavyo-0"/>
        <mxCell id="Sdiq3zvMLhk7DjWIavyo-1" parent="Sdiq3zvMLhk7DjWIavyo-0"/>
        <mxCell id="Sdiq3zvMLhk7DjWIavyo-2" value="" style="strokeWidth=1;shadow=0;dashed=0;align=center;html=1;shape=mxgraph.mockup.containers.browserWindow;rSize=0;strokeColor=#666666;strokeColor2=#008cff;strokeColor3=#c4c4c4;mainText=,;recursiveResize=0;fontSize=17;" vertex="1" parent="Sdiq3zvMLhk7DjWIavyo-1">
          <mxGeometry x="310" y="170" width="550" height="380" as="geometry"/>
        </mxCell>
        <mxCell id="Sdiq3zvMLhk7DjWIavyo-3" value="Page 1" style="strokeWidth=1;shadow=0;dashed=0;align=center;html=1;shape=mxgraph.mockup.containers.anchor;fontSize=17;fontColor=#666666;align=left;" vertex="1" parent="Sdiq3zvMLhk7DjWIavyo-2">
          <mxGeometry x="60" y="12" width="110" height="26" as="geometry"/>
        </mxCell>
        <mxCell id="Sdiq3zvMLhk7DjWIavyo-4" value="https://www.draw.io" style="strokeWidth=1;shadow=0;dashed=0;align=center;html=1;shape=mxgraph.mockup.containers.anchor;rSize=0;fontSize=17;fontColor=#666666;align=left;" vertex="1" parent="Sdiq3zvMLhk7DjWIavyo-2">
          <mxGeometry x="130" y="60" width="250" height="26" as="geometry"/>
        </mxCell>
        <mxCell id="Sdiq3zvMLhk7DjWIavyo-5" value="" style="rounded=0;whiteSpace=wrap;html=1;fontSize=17;" vertex="1" parent="Sdiq3zvMLhk7DjWIavyo-2">
          <mxGeometry x="130" y="120" width="290" height="240" as="geometry"/>
        </mxCell>
        <mxCell id="Sdiq3zvMLhk7DjWIavyo-6" value="Typing Challenge" style="text;html=1;strokeColor=none;fillColor=none;align=center;verticalAlign=middle;whiteSpace=wrap;rounded=0;fontSize=19;fontStyle=1" vertex="1" parent="Sdiq3zvMLhk7DjWIavyo-2">
          <mxGeometry x="187.5" y="130" width="175" height="20" as="geometry"/>
        </mxCell>
        <mxCell id="Sdiq3zvMLhk7DjWIavyo-7" value="&lt;font color=&quot;#33ff33&quot;&gt;Lorem ipsum dolor sit amet&lt;/font&gt;" style="text;html=1;strokeColor=none;fillColor=none;align=center;verticalAlign=middle;whiteSpace=wrap;rounded=0;fontSize=17;fontStyle=2" vertex="1" parent="Sdiq3zvMLhk7DjWIavyo-2">
          <mxGeometry x="162.5" y="175" width="225" height="30" as="geometry"/>
        </mxCell>
        <mxCell id="Sdiq3zvMLhk7DjWIavyo-8" value="&lt;font style=&quot;text-align: center&quot;&gt;Lorem&lt;/font&gt;&lt;span style=&quot;text-align: center&quot;&gt;&amp;nbsp;&lt;/span&gt;&lt;font style=&quot;text-align: center&quot;&gt;i&lt;/font&gt;&lt;span style=&quot;text-align: center&quot;&gt;psum dolor sit amet&lt;/span&gt;" style="rounded=0;whiteSpace=wrap;html=1;fontSize=17;align=left;" vertex="1" parent="Sdiq3zvMLhk7DjWIavyo-2">
          <mxGeometry x="170" y="240" width="210" height="40" as="geometry"/>
        </mxCell>
        <mxCell id="Sdiq3zvMLhk7DjWIavyo-9" value="You win!" style="text;html=1;strokeColor=none;fillColor=none;align=center;verticalAlign=middle;whiteSpace=wrap;rounded=0;fontSize=19;fontStyle=1" vertex="1" parent="Sdiq3zvMLhk7DjWIavyo-2">
          <mxGeometry x="187.5" y="300" width="175" height="20" as="geometry"/>
        </mxCell>
      </root>
    </mxGraphModel>
  </diagram>
  <diagram id="KhQKptp95kW-xrMt0c17" name="05 - step">
    <mxGraphModel dx="747" dy="359" grid="1" gridSize="10" guides="1" tooltips="1" connect="1" arrows="1" fold="1" page="1" pageScale="1" pageWidth="1920" pageHeight="1200" math="0" shadow="0">
      <root>
        <mxCell id="F88OeaSKevgMvjSdSm2t-0"/>
        <mxCell id="F88OeaSKevgMvjSdSm2t-1" parent="F88OeaSKevgMvjSdSm2t-0"/>
        <mxCell id="F88OeaSKevgMvjSdSm2t-2" value="Generate a new Angular project named &#39;typing&#39;" style="rounded=0;whiteSpace=wrap;html=1;fontSize=22;align=center;fillColor=#dae8fc;strokeColor=#6c8ebf;" vertex="1" parent="F88OeaSKevgMvjSdSm2t-1">
          <mxGeometry x="530" y="150" width="490" height="60" as="geometry"/>
        </mxCell>
        <mxCell id="F88OeaSKevgMvjSdSm2t-3" value="Start the project up and access it in your browser" style="rounded=0;whiteSpace=wrap;html=1;fontSize=22;align=center;fillColor=#dae8fc;strokeColor=#6c8ebf;" vertex="1" parent="F88OeaSKevgMvjSdSm2t-1">
          <mxGeometry x="530" y="220" width="490" height="60" as="geometry"/>
        </mxCell>
        <mxCell id="F88OeaSKevgMvjSdSm2t-4" value="Install Bulma CSS using &#39;npm&#39;" style="rounded=0;whiteSpace=wrap;html=1;fontSize=22;align=center;fillColor=#dae8fc;strokeColor=#6c8ebf;" vertex="1" parent="F88OeaSKevgMvjSdSm2t-1">
          <mxGeometry x="530" y="290" width="490" height="60" as="geometry"/>
        </mxCell>
        <mxCell id="F88OeaSKevgMvjSdSm2t-5" value="Make sure Bulma CSS gets included into the project" style="rounded=0;whiteSpace=wrap;html=1;fontSize=22;align=center;fillColor=#dae8fc;strokeColor=#6c8ebf;" vertex="1" parent="F88OeaSKevgMvjSdSm2t-1">
          <mxGeometry x="530" y="360" width="490" height="60" as="geometry"/>
        </mxCell>
      </root>
    </mxGraphModel>
  </diagram>
  <diagram id="Y6FUrMuP8pb2Geokddwq" name="06 - step">
    <mxGraphModel dx="747" dy="359" grid="1" gridSize="10" guides="1" tooltips="1" connect="1" arrows="1" fold="1" page="1" pageScale="1" pageWidth="1920" pageHeight="1200" math="0" shadow="0">
      <root>
        <mxCell id="zSNH1sWErDgYx_2rxu5I-0"/>
        <mxCell id="zSNH1sWErDgYx_2rxu5I-1" parent="zSNH1sWErDgYx_2rxu5I-0"/>
        <mxCell id="hH6XscC2yD8mMvEA6E-3-0" value="Change the content that gets displayed to the user" style="rounded=0;whiteSpace=wrap;html=1;fontSize=22;align=center;fillColor=#dae8fc;strokeColor=#6c8ebf;" vertex="1" parent="zSNH1sWErDgYx_2rxu5I-1">
          <mxGeometry x="520" y="140" width="490" height="60" as="geometry"/>
        </mxCell>
        <mxCell id="hH6XscC2yD8mMvEA6E-3-2" value="Make sure we can see a title, some place to put the randomly generated sentence, an input, and the &#39;success&#39; message" style="rounded=0;whiteSpace=wrap;html=1;fontSize=22;align=center;fillColor=#dae8fc;strokeColor=#6c8ebf;" vertex="1" parent="zSNH1sWErDgYx_2rxu5I-1">
          <mxGeometry x="520" y="210" width="490" height="100" as="geometry"/>
        </mxCell>
      </root>
    </mxGraphModel>
  </diagram>
  <diagram id="Oc05OA3zV78bcSS1Vofn" name="07 - step">
    <mxGraphModel dx="747" dy="359" grid="1" gridSize="10" guides="1" tooltips="1" connect="1" arrows="1" fold="1" page="1" pageScale="1" pageWidth="1920" pageHeight="1200" math="0" shadow="0">
      <root>
        <mxCell id="UeB1yedIK-696nlOYSyz-0"/>
        <mxCell id="UeB1yedIK-696nlOYSyz-1" parent="UeB1yedIK-696nlOYSyz-0"/>
        <mxCell id="cc7n-IQJtYzBt_SVodHm-0" value="We need to randomly generate a sentence" style="rounded=0;whiteSpace=wrap;html=1;fontSize=22;align=center;fillColor=#dae8fc;strokeColor=#6c8ebf;" vertex="1" parent="UeB1yedIK-696nlOYSyz-1">
          <mxGeometry x="520" y="140" width="490" height="60" as="geometry"/>
        </mxCell>
        <mxCell id="cc7n-IQJtYzBt_SVodHm-2" value="When our app first starts up, we should generate a new sentence and assign it to a property of some component" style="rounded=0;whiteSpace=wrap;html=1;fontSize=22;align=center;fillColor=#dae8fc;strokeColor=#6c8ebf;" vertex="1" parent="UeB1yedIK-696nlOYSyz-1">
          <mxGeometry x="520" y="210" width="490" height="90" as="geometry"/>
        </mxCell>
        <mxCell id="cc7n-IQJtYzBt_SVodHm-3" value="We should then make sure that this randomly generated sentence is visible on the screen" style="rounded=0;whiteSpace=wrap;html=1;fontSize=22;align=center;fillColor=#dae8fc;strokeColor=#6c8ebf;" vertex="1" parent="UeB1yedIK-696nlOYSyz-1">
          <mxGeometry x="520" y="310" width="490" height="90" as="geometry"/>
        </mxCell>
      </root>
    </mxGraphModel>
  </diagram>
  <diagram id="7E8KGtTzZCOLDeHxP2ge" name="08 - step">
    <mxGraphModel dx="747" dy="359" grid="1" gridSize="10" guides="1" tooltips="1" connect="1" arrows="1" fold="1" page="1" pageScale="1" pageWidth="1920" pageHeight="1200" math="0" shadow="0">
      <root>
        <mxCell id="HudaiXmk_yXjDqlmtyeN-0"/>
        <mxCell id="HudaiXmk_yXjDqlmtyeN-1" parent="HudaiXmk_yXjDqlmtyeN-0"/>
        <mxCell id="k4YsP6CTQ8r7eTNMfVSQ-0" value="We need to detect when a user types in the text input" style="rounded=0;whiteSpace=wrap;html=1;fontSize=22;align=center;fillColor=#dae8fc;strokeColor=#6c8ebf;" vertex="1" parent="HudaiXmk_yXjDqlmtyeN-1">
          <mxGeometry x="520" y="140" width="490" height="60" as="geometry"/>
        </mxCell>
        <mxCell id="k4YsP6CTQ8r7eTNMfVSQ-1" value="Add in some code to detect the user typing in there" style="rounded=0;whiteSpace=wrap;html=1;fontSize=22;align=center;fillColor=#dae8fc;strokeColor=#6c8ebf;" vertex="1" parent="HudaiXmk_yXjDqlmtyeN-1">
          <mxGeometry x="520" y="210" width="490" height="70" as="geometry"/>
        </mxCell>
        <mxCell id="k4YsP6CTQ8r7eTNMfVSQ-2" value="Verify that this works by console logging whatever value the user types in the input" style="rounded=0;whiteSpace=wrap;html=1;fontSize=22;align=center;fillColor=#dae8fc;strokeColor=#6c8ebf;" vertex="1" parent="HudaiXmk_yXjDqlmtyeN-1">
          <mxGeometry x="520" y="290" width="490" height="80" as="geometry"/>
        </mxCell>
      </root>
    </mxGraphModel>
  </diagram>
  <diagram name="09 - step" id="PKuULqFUbzjt8_iZe9ic">
    <mxGraphModel dx="747" dy="359" grid="1" gridSize="10" guides="1" tooltips="1" connect="1" arrows="1" fold="1" page="1" pageScale="1" pageWidth="1920" pageHeight="1200" math="0" shadow="0">
      <root>
        <mxCell id="aqbKHKXDOGXZziIQrstH-0"/>
        <mxCell id="aqbKHKXDOGXZziIQrstH-1" parent="aqbKHKXDOGXZziIQrstH-0"/>
        <mxCell id="aqbKHKXDOGXZziIQrstH-2" value="We need to detect when a user types in the text input" style="rounded=0;whiteSpace=wrap;html=1;fontSize=22;align=center;fillColor=#dae8fc;strokeColor=#6c8ebf;" vertex="1" parent="aqbKHKXDOGXZziIQrstH-1">
          <mxGeometry x="520" y="140" width="490" height="60" as="geometry"/>
        </mxCell>
        <mxCell id="aqbKHKXDOGXZziIQrstH-3" value="Add in some code to detect the user typing in there" style="rounded=0;whiteSpace=wrap;html=1;fontSize=22;align=center;fillColor=#dae8fc;strokeColor=#6c8ebf;" vertex="1" parent="aqbKHKXDOGXZziIQrstH-1">
          <mxGeometry x="520" y="210" width="490" height="70" as="geometry"/>
        </mxCell>
        <mxCell id="aqbKHKXDOGXZziIQrstH-4" value="Verify that this works by console logging whatever value the user types in the input" style="rounded=0;whiteSpace=wrap;html=1;fontSize=22;align=center;fillColor=#dae8fc;strokeColor=#6c8ebf;" vertex="1" parent="aqbKHKXDOGXZziIQrstH-1">
          <mxGeometry x="520" y="290" width="490" height="80" as="geometry"/>
        </mxCell>
      </root>
    </mxGraphModel>
  </diagram>
  <diagram name="10 - step" id="DFcFtRhj3Cf_4P4-o2OF">
    <mxGraphModel dx="747" dy="359" grid="1" gridSize="10" guides="1" tooltips="1" connect="1" arrows="1" fold="1" page="1" pageScale="1" pageWidth="1920" pageHeight="1200" math="0" shadow="0">
      <root>
        <mxCell id="JFSJnLR9ZNy1vH8tWa54-0"/>
        <mxCell id="JFSJnLR9ZNy1vH8tWa54-1" parent="JFSJnLR9ZNy1vH8tWa54-0"/>
        <mxCell id="JFSJnLR9ZNy1vH8tWa54-2" value="Make sure the &#39;Success!&#39; message is hidden by default" style="rounded=0;whiteSpace=wrap;html=1;fontSize=22;align=center;fillColor=#dae8fc;strokeColor=#6c8ebf;" vertex="1" parent="JFSJnLR9ZNy1vH8tWa54-1">
          <mxGeometry x="520" y="110" width="490" height="90" as="geometry"/>
        </mxCell>
        <mxCell id="JFSJnLR9ZNy1vH8tWa54-3" value="If the user enters the correct text, show the &#39;Success!&#39; message" style="rounded=0;whiteSpace=wrap;html=1;fontSize=22;align=center;fillColor=#dae8fc;strokeColor=#6c8ebf;" vertex="1" parent="JFSJnLR9ZNy1vH8tWa54-1">
          <mxGeometry x="520" y="210" width="490" height="100" as="geometry"/>
        </mxCell>
      </root>
    </mxGraphModel>
  </diagram>
  <diagram id="GCwZxhnUIEkywjFNQ970" name="16 - index">
    <mxGraphModel dx="747" dy="359" grid="1" gridSize="10" guides="1" tooltips="1" connect="1" arrows="1" fold="1" page="1" pageScale="1" pageWidth="1920" pageHeight="1200" math="0" shadow="0">
      <root>
        <mxCell id="yI0aybooSEcVvxrmNejf-0"/>
        <mxCell id="yI0aybooSEcVvxrmNejf-1" parent="yI0aybooSEcVvxrmNejf-0"/>
        <mxCell id="4yhqcjbLPFN2jDA0h2Ts-0" value="Display each character in the template, but color it green if it is right, red if wrong, and gray if a given character hasn&#39;t been entered yet" style="rounded=0;whiteSpace=wrap;html=1;fontSize=22;align=center;fillColor=#dae8fc;strokeColor=#6c8ebf;" vertex="1" parent="yI0aybooSEcVvxrmNejf-1">
          <mxGeometry x="520" y="110" width="490" height="140" as="geometry"/>
        </mxCell>
      </root>
    </mxGraphModel>
  </diagram>
  <diagram id="zvzH8khXBsMUC9Vxphk1" name="11 - compare">
    <mxGraphModel dx="634" dy="359" grid="1" gridSize="10" guides="1" tooltips="1" connect="1" arrows="1" fold="1" page="1" pageScale="1" pageWidth="1920" pageHeight="1200" math="0" shadow="0">
      <root>
        <mxCell id="aS3Gxqcv6ESjDYojU56d-0"/>
        <mxCell id="aS3Gxqcv6ESjDYojU56d-1" parent="aS3Gxqcv6ESjDYojU56d-0"/>
        <mxCell id="-UNgvu6yjDeVGGU-b2kM-0" value="" style="rounded=0;whiteSpace=wrap;html=1;fontSize=17;" vertex="1" parent="aS3Gxqcv6ESjDYojU56d-1">
          <mxGeometry x="440" y="290" width="290" height="210" as="geometry"/>
        </mxCell>
        <mxCell id="-UNgvu6yjDeVGGU-b2kM-1" value="Typing Challenge" style="text;html=1;strokeColor=none;fillColor=none;align=center;verticalAlign=middle;whiteSpace=wrap;rounded=0;fontSize=19;fontStyle=1" vertex="1" parent="aS3Gxqcv6ESjDYojU56d-1">
          <mxGeometry x="497.5" y="300" width="175" height="20" as="geometry"/>
        </mxCell>
        <mxCell id="-UNgvu6yjDeVGGU-b2kM-2" value="&lt;font color=&quot;#33ff33&quot;&gt;Lorem&lt;/font&gt; &lt;font color=&quot;#ff0000&quot;&gt;ip&lt;/font&gt;&lt;font color=&quot;#33ff33&quot;&gt;sum&lt;/font&gt;&lt;font color=&quot;#ff0000&quot;&gt; &lt;/font&gt;dolor sit amet" style="text;html=1;strokeColor=none;fillColor=none;align=center;verticalAlign=middle;whiteSpace=wrap;rounded=0;fontSize=17;fontStyle=2" vertex="1" parent="aS3Gxqcv6ESjDYojU56d-1">
          <mxGeometry x="472.5" y="345" width="225" height="30" as="geometry"/>
        </mxCell>
        <mxCell id="-UNgvu6yjDeVGGU-b2kM-3" value="&amp;nbsp;Lorem kbsum" style="rounded=0;whiteSpace=wrap;html=1;fontSize=17;align=left;" vertex="1" parent="aS3Gxqcv6ESjDYojU56d-1">
          <mxGeometry x="480" y="410" width="210" height="40" as="geometry"/>
        </mxCell>
      </root>
    </mxGraphModel>
  </diagram>
  <diagram id="ezL_GFW4xGKxIKV2HqRM" name="15 - approaches">
    <mxGraphModel dx="634" dy="359" grid="1" gridSize="10" guides="1" tooltips="1" connect="1" arrows="1" fold="1" page="1" pageScale="1" pageWidth="1920" pageHeight="1200" math="0" shadow="0">
      <root>
        <mxCell id="vvG4VIjJp7RfASj8-90J-0"/>
        <mxCell id="vvG4VIjJp7RfASj8-90J-1" parent="vvG4VIjJp7RfASj8-90J-0"/>
        <mxCell id="B7OU3XZv6BcST9rBVZXd-0" value="Write comparison code in the component &lt;i&gt;class.&amp;nbsp; &lt;/i&gt;Add a method that compares the entered text with the random text and generates a datastructure describing which characters are wrong" style="rounded=0;whiteSpace=wrap;html=1;fontSize=16;align=center;fillColor=#dae8fc;strokeColor=#6c8ebf;" vertex="1" parent="vvG4VIjJp7RfASj8-90J-1">
          <mxGeometry x="380" y="290" width="320" height="120" as="geometry"/>
        </mxCell>
        <mxCell id="B7OU3XZv6BcST9rBVZXd-2" value="Class Based" style="text;html=1;strokeColor=none;fillColor=none;align=center;verticalAlign=middle;whiteSpace=wrap;rounded=0;fontSize=20;fontStyle=1" vertex="1" parent="vvG4VIjJp7RfASj8-90J-1">
          <mxGeometry x="460" y="260" width="160" height="20" as="geometry"/>
        </mxCell>
        <mxCell id="B7OU3XZv6BcST9rBVZXd-3" value="Component class records the entered text + random text then hands result off to template.&amp;nbsp; Template decides how to render each character" style="rounded=0;whiteSpace=wrap;html=1;fontSize=16;align=center;fillColor=#dae8fc;strokeColor=#6c8ebf;" vertex="1" parent="vvG4VIjJp7RfASj8-90J-1">
          <mxGeometry x="720" y="290" width="320" height="120" as="geometry"/>
        </mxCell>
        <mxCell id="B7OU3XZv6BcST9rBVZXd-4" value="Template Based" style="text;html=1;strokeColor=none;fillColor=none;align=center;verticalAlign=middle;whiteSpace=wrap;rounded=0;fontSize=20;fontStyle=1" vertex="1" parent="vvG4VIjJp7RfASj8-90J-1">
          <mxGeometry x="800" y="260" width="160" height="20" as="geometry"/>
        </mxCell>
      </root>
    </mxGraphModel>
  </diagram>
  <diagram id="X7Cc2rdpZmrag1x978G2" name="17 - ngfor">
    <mxGraphModel dx="634" dy="359" grid="1" gridSize="10" guides="1" tooltips="1" connect="1" arrows="1" fold="1" page="1" pageScale="1" pageWidth="1920" pageHeight="1200" math="0" shadow="0">
      <root>
        <mxCell id="XnSPyeJEtUq_8SKz357B-0"/>
        <mxCell id="XnSPyeJEtUq_8SKz357B-1" parent="XnSPyeJEtUq_8SKz357B-0"/>
        <mxCell id="-Jsh5ag4_ue1L5l6Neho-0" value="&amp;lt;span *ngFor=&quot;let letter of randomText.split(&#39;&#39;); let i = index;&quot;&amp;gt;&lt;br&gt;&amp;lt;/span&amp;gt;" style="rounded=0;whiteSpace=wrap;html=1;fontSize=20;align=left;" vertex="1" parent="XnSPyeJEtUq_8SKz357B-1">
          <mxGeometry x="440" y="240" width="600" height="60" as="geometry"/>
        </mxCell>
        <mxCell id="-Jsh5ag4_ue1L5l6Neho-2" value="NgFor with an Index" style="text;html=1;strokeColor=none;fillColor=none;align=center;verticalAlign=middle;whiteSpace=wrap;rounded=0;fontSize=24;fontStyle=1" vertex="1" parent="XnSPyeJEtUq_8SKz357B-1">
          <mxGeometry x="620" y="210" width="240" height="20" as="geometry"/>
        </mxCell>
      </root>
    </mxGraphModel>
  </diagram>
  <diagram id="4F14pCWtgTtvh133rrJ6" name="12 - model">
    <mxGraphModel dx="634" dy="359" grid="1" gridSize="10" guides="1" tooltips="1" connect="1" arrows="1" fold="1" page="1" pageScale="1" pageWidth="1920" pageHeight="1200" math="0" shadow="0">
      <root>
        <mxCell id="AqoJi8sDEEPmagOd8fCI-0"/>
        <mxCell id="AqoJi8sDEEPmagOd8fCI-1" parent="AqoJi8sDEEPmagOd8fCI-0"/>
        <mxCell id="AqoJi8sDEEPmagOd8fCI-2" value="{ &lt;br style=&quot;font-size: 12px;&quot;&gt;&amp;nbsp; char: &#39;l&#39;,&lt;br style=&quot;font-size: 12px;&quot;&gt;&amp;nbsp; status: &#39;pending&#39;&lt;br style=&quot;font-size: 12px;&quot;&gt;}" style="rounded=0;whiteSpace=wrap;html=1;fontSize=12;align=left;" vertex="1" parent="AqoJi8sDEEPmagOd8fCI-1">
          <mxGeometry x="520" y="220" width="100" height="80" as="geometry"/>
        </mxCell>
        <mxCell id="AqoJi8sDEEPmagOd8fCI-15" style="edgeStyle=orthogonalEdgeStyle;rounded=0;orthogonalLoop=1;jettySize=auto;html=1;exitX=0.5;exitY=1;exitDx=0;exitDy=0;fontSize=12;" edge="1" parent="AqoJi8sDEEPmagOd8fCI-1" source="AqoJi8sDEEPmagOd8fCI-3" target="AqoJi8sDEEPmagOd8fCI-2">
          <mxGeometry relative="1" as="geometry"/>
        </mxCell>
        <mxCell id="AqoJi8sDEEPmagOd8fCI-3" value="l" style="rounded=0;whiteSpace=wrap;html=1;fontSize=22;align=center;" vertex="1" parent="AqoJi8sDEEPmagOd8fCI-1">
          <mxGeometry x="520" y="110" width="100" height="80" as="geometry"/>
        </mxCell>
        <mxCell id="AqoJi8sDEEPmagOd8fCI-16" style="edgeStyle=orthogonalEdgeStyle;rounded=0;orthogonalLoop=1;jettySize=auto;html=1;exitX=0.5;exitY=1;exitDx=0;exitDy=0;fontSize=12;" edge="1" parent="AqoJi8sDEEPmagOd8fCI-1" source="AqoJi8sDEEPmagOd8fCI-4" target="AqoJi8sDEEPmagOd8fCI-11">
          <mxGeometry relative="1" as="geometry"/>
        </mxCell>
        <mxCell id="AqoJi8sDEEPmagOd8fCI-4" value="o" style="rounded=0;whiteSpace=wrap;html=1;fontSize=22;align=center;" vertex="1" parent="AqoJi8sDEEPmagOd8fCI-1">
          <mxGeometry x="620" y="110" width="100" height="80" as="geometry"/>
        </mxCell>
        <mxCell id="AqoJi8sDEEPmagOd8fCI-17" style="edgeStyle=orthogonalEdgeStyle;rounded=0;orthogonalLoop=1;jettySize=auto;html=1;exitX=0.5;exitY=1;exitDx=0;exitDy=0;fontSize=12;" edge="1" parent="AqoJi8sDEEPmagOd8fCI-1" source="AqoJi8sDEEPmagOd8fCI-5" target="AqoJi8sDEEPmagOd8fCI-13">
          <mxGeometry relative="1" as="geometry"/>
        </mxCell>
        <mxCell id="AqoJi8sDEEPmagOd8fCI-5" value="r" style="rounded=0;whiteSpace=wrap;html=1;fontSize=22;align=center;" vertex="1" parent="AqoJi8sDEEPmagOd8fCI-1">
          <mxGeometry x="720" y="110" width="100" height="80" as="geometry"/>
        </mxCell>
        <mxCell id="AqoJi8sDEEPmagOd8fCI-18" style="edgeStyle=orthogonalEdgeStyle;rounded=0;orthogonalLoop=1;jettySize=auto;html=1;exitX=0.5;exitY=1;exitDx=0;exitDy=0;fontSize=12;" edge="1" parent="AqoJi8sDEEPmagOd8fCI-1" source="AqoJi8sDEEPmagOd8fCI-6" target="AqoJi8sDEEPmagOd8fCI-12">
          <mxGeometry relative="1" as="geometry"/>
        </mxCell>
        <mxCell id="AqoJi8sDEEPmagOd8fCI-6" value="e" style="rounded=0;whiteSpace=wrap;html=1;fontSize=22;align=center;" vertex="1" parent="AqoJi8sDEEPmagOd8fCI-1">
          <mxGeometry x="820" y="110" width="100" height="80" as="geometry"/>
        </mxCell>
        <mxCell id="AqoJi8sDEEPmagOd8fCI-19" style="edgeStyle=orthogonalEdgeStyle;rounded=0;orthogonalLoop=1;jettySize=auto;html=1;exitX=0.5;exitY=1;exitDx=0;exitDy=0;entryX=0.5;entryY=0;entryDx=0;entryDy=0;fontSize=12;" edge="1" parent="AqoJi8sDEEPmagOd8fCI-1" source="AqoJi8sDEEPmagOd8fCI-7" target="AqoJi8sDEEPmagOd8fCI-14">
          <mxGeometry relative="1" as="geometry"/>
        </mxCell>
        <mxCell id="AqoJi8sDEEPmagOd8fCI-7" value="m" style="rounded=0;whiteSpace=wrap;html=1;fontSize=22;align=center;" vertex="1" parent="AqoJi8sDEEPmagOd8fCI-1">
          <mxGeometry x="920" y="110" width="100" height="80" as="geometry"/>
        </mxCell>
        <mxCell id="AqoJi8sDEEPmagOd8fCI-8" value="[" style="rounded=0;whiteSpace=wrap;html=1;fontSize=22;align=center;" vertex="1" parent="AqoJi8sDEEPmagOd8fCI-1">
          <mxGeometry x="480" y="220" width="40" height="80" as="geometry"/>
        </mxCell>
        <mxCell id="AqoJi8sDEEPmagOd8fCI-9" value="]" style="rounded=0;whiteSpace=wrap;html=1;fontSize=22;align=center;" vertex="1" parent="AqoJi8sDEEPmagOd8fCI-1">
          <mxGeometry x="1019.5" y="220" width="40" height="80" as="geometry"/>
        </mxCell>
        <mxCell id="AqoJi8sDEEPmagOd8fCI-11" value="{ &lt;br style=&quot;font-size: 12px&quot;&gt;&amp;nbsp; char: &#39;o&#39;,&lt;br style=&quot;font-size: 12px&quot;&gt;&amp;nbsp; status: &#39;pending&#39;&lt;br style=&quot;font-size: 12px&quot;&gt;}" style="rounded=0;whiteSpace=wrap;html=1;fontSize=12;align=left;" vertex="1" parent="AqoJi8sDEEPmagOd8fCI-1">
          <mxGeometry x="620" y="220" width="100" height="80" as="geometry"/>
        </mxCell>
        <mxCell id="AqoJi8sDEEPmagOd8fCI-12" value="{ &lt;br style=&quot;font-size: 12px&quot;&gt;&amp;nbsp; char: &#39;e&#39;,&lt;br style=&quot;font-size: 12px&quot;&gt;&amp;nbsp; status: &#39;pending&#39;&lt;br style=&quot;font-size: 12px&quot;&gt;}" style="rounded=0;whiteSpace=wrap;html=1;fontSize=12;align=left;" vertex="1" parent="AqoJi8sDEEPmagOd8fCI-1">
          <mxGeometry x="820" y="220" width="100" height="80" as="geometry"/>
        </mxCell>
        <mxCell id="AqoJi8sDEEPmagOd8fCI-13" value="{ &lt;br style=&quot;font-size: 12px&quot;&gt;&amp;nbsp; char: &#39;r&#39;,&lt;br style=&quot;font-size: 12px&quot;&gt;&amp;nbsp; status: &#39;pending&#39;&lt;br style=&quot;font-size: 12px&quot;&gt;}" style="rounded=0;whiteSpace=wrap;html=1;fontSize=12;align=left;" vertex="1" parent="AqoJi8sDEEPmagOd8fCI-1">
          <mxGeometry x="720" y="220" width="100" height="80" as="geometry"/>
        </mxCell>
        <mxCell id="AqoJi8sDEEPmagOd8fCI-14" value="{ &lt;br style=&quot;font-size: 12px&quot;&gt;&amp;nbsp; char: &#39;m&#39;,&lt;br style=&quot;font-size: 12px&quot;&gt;&amp;nbsp; status: &#39;pending&#39;&lt;br style=&quot;font-size: 12px&quot;&gt;}" style="rounded=0;whiteSpace=wrap;html=1;fontSize=12;align=left;" vertex="1" parent="AqoJi8sDEEPmagOd8fCI-1">
          <mxGeometry x="920" y="220" width="100" height="80" as="geometry"/>
        </mxCell>
      </root>
    </mxGraphModel>
  </diagram>
  <diagram name="13 - enter" id="ZlMZjp-Jr1k_TJFOz7Nt">
    <mxGraphModel dx="747" dy="359" grid="1" gridSize="10" guides="1" tooltips="1" connect="1" arrows="1" fold="1" page="1" pageScale="1" pageWidth="1920" pageHeight="1200" math="0" shadow="0">
      <root>
        <mxCell id="RPvP8Hq5Tfrz5NWm5PwG-0"/>
        <mxCell id="RPvP8Hq5Tfrz5NWm5PwG-1" parent="RPvP8Hq5Tfrz5NWm5PwG-0"/>
        <mxCell id="RPvP8Hq5Tfrz5NWm5PwG-2" value="{ &lt;br style=&quot;font-size: 12px&quot;&gt;&amp;nbsp; char: &#39;l&#39;,&lt;br style=&quot;font-size: 12px&quot;&gt;&amp;nbsp; status: &#39;right&#39;&lt;br style=&quot;font-size: 12px&quot;&gt;}" style="rounded=0;whiteSpace=wrap;html=1;fontSize=12;align=left;fillColor=#d5e8d4;strokeColor=#82b366;" vertex="1" parent="RPvP8Hq5Tfrz5NWm5PwG-1">
          <mxGeometry x="520" y="230" width="100" height="80" as="geometry"/>
        </mxCell>
        <mxCell id="RPvP8Hq5Tfrz5NWm5PwG-3" style="edgeStyle=orthogonalEdgeStyle;rounded=0;orthogonalLoop=1;jettySize=auto;html=1;exitX=0.5;exitY=1;exitDx=0;exitDy=0;fontSize=12;" edge="1" parent="RPvP8Hq5Tfrz5NWm5PwG-1" source="RPvP8Hq5Tfrz5NWm5PwG-4" target="RPvP8Hq5Tfrz5NWm5PwG-2">
          <mxGeometry relative="1" as="geometry"/>
        </mxCell>
        <mxCell id="RPvP8Hq5Tfrz5NWm5PwG-4" value="l" style="rounded=0;whiteSpace=wrap;html=1;fontSize=22;align=center;" vertex="1" parent="RPvP8Hq5Tfrz5NWm5PwG-1">
          <mxGeometry x="520" y="110" width="100" height="80" as="geometry"/>
        </mxCell>
        <mxCell id="RPvP8Hq5Tfrz5NWm5PwG-5" style="edgeStyle=orthogonalEdgeStyle;rounded=0;orthogonalLoop=1;jettySize=auto;html=1;exitX=0.5;exitY=1;exitDx=0;exitDy=0;fontSize=12;" edge="1" parent="RPvP8Hq5Tfrz5NWm5PwG-1" source="RPvP8Hq5Tfrz5NWm5PwG-6" target="RPvP8Hq5Tfrz5NWm5PwG-15">
          <mxGeometry relative="1" as="geometry"/>
        </mxCell>
        <mxCell id="RPvP8Hq5Tfrz5NWm5PwG-6" value="o" style="rounded=0;whiteSpace=wrap;html=1;fontSize=22;align=center;" vertex="1" parent="RPvP8Hq5Tfrz5NWm5PwG-1">
          <mxGeometry x="620" y="110" width="100" height="80" as="geometry"/>
        </mxCell>
        <mxCell id="RPvP8Hq5Tfrz5NWm5PwG-7" style="edgeStyle=orthogonalEdgeStyle;rounded=0;orthogonalLoop=1;jettySize=auto;html=1;exitX=0.5;exitY=1;exitDx=0;exitDy=0;fontSize=12;" edge="1" parent="RPvP8Hq5Tfrz5NWm5PwG-1" source="RPvP8Hq5Tfrz5NWm5PwG-8" target="RPvP8Hq5Tfrz5NWm5PwG-17">
          <mxGeometry relative="1" as="geometry"/>
        </mxCell>
        <mxCell id="RPvP8Hq5Tfrz5NWm5PwG-8" value="r" style="rounded=0;whiteSpace=wrap;html=1;fontSize=22;align=center;" vertex="1" parent="RPvP8Hq5Tfrz5NWm5PwG-1">
          <mxGeometry x="720" y="110" width="100" height="80" as="geometry"/>
        </mxCell>
        <mxCell id="RPvP8Hq5Tfrz5NWm5PwG-9" style="edgeStyle=orthogonalEdgeStyle;rounded=0;orthogonalLoop=1;jettySize=auto;html=1;exitX=0.5;exitY=1;exitDx=0;exitDy=0;fontSize=12;" edge="1" parent="RPvP8Hq5Tfrz5NWm5PwG-1" source="RPvP8Hq5Tfrz5NWm5PwG-10" target="RPvP8Hq5Tfrz5NWm5PwG-16">
          <mxGeometry relative="1" as="geometry"/>
        </mxCell>
        <mxCell id="RPvP8Hq5Tfrz5NWm5PwG-10" value="e" style="rounded=0;whiteSpace=wrap;html=1;fontSize=22;align=center;" vertex="1" parent="RPvP8Hq5Tfrz5NWm5PwG-1">
          <mxGeometry x="820" y="110" width="100" height="80" as="geometry"/>
        </mxCell>
        <mxCell id="RPvP8Hq5Tfrz5NWm5PwG-11" style="edgeStyle=orthogonalEdgeStyle;rounded=0;orthogonalLoop=1;jettySize=auto;html=1;exitX=0.5;exitY=1;exitDx=0;exitDy=0;entryX=0.5;entryY=0;entryDx=0;entryDy=0;fontSize=12;" edge="1" parent="RPvP8Hq5Tfrz5NWm5PwG-1" source="RPvP8Hq5Tfrz5NWm5PwG-12" target="RPvP8Hq5Tfrz5NWm5PwG-18">
          <mxGeometry relative="1" as="geometry"/>
        </mxCell>
        <mxCell id="RPvP8Hq5Tfrz5NWm5PwG-12" value="m" style="rounded=0;whiteSpace=wrap;html=1;fontSize=22;align=center;" vertex="1" parent="RPvP8Hq5Tfrz5NWm5PwG-1">
          <mxGeometry x="920" y="110" width="100" height="80" as="geometry"/>
        </mxCell>
        <mxCell id="RPvP8Hq5Tfrz5NWm5PwG-13" value="[" style="rounded=0;whiteSpace=wrap;html=1;fontSize=22;align=center;" vertex="1" parent="RPvP8Hq5Tfrz5NWm5PwG-1">
          <mxGeometry x="480" y="230" width="40" height="80" as="geometry"/>
        </mxCell>
        <mxCell id="RPvP8Hq5Tfrz5NWm5PwG-14" value="]" style="rounded=0;whiteSpace=wrap;html=1;fontSize=22;align=center;" vertex="1" parent="RPvP8Hq5Tfrz5NWm5PwG-1">
          <mxGeometry x="1019.5" y="230" width="40" height="80" as="geometry"/>
        </mxCell>
        <mxCell id="RPvP8Hq5Tfrz5NWm5PwG-15" value="{ &lt;br style=&quot;font-size: 12px&quot;&gt;&amp;nbsp; char: &#39;o&#39;,&lt;br style=&quot;font-size: 12px&quot;&gt;&amp;nbsp; status: &#39;right&#39;&lt;br style=&quot;font-size: 12px&quot;&gt;}" style="rounded=0;whiteSpace=wrap;html=1;fontSize=12;align=left;fillColor=#d5e8d4;strokeColor=#82b366;" vertex="1" parent="RPvP8Hq5Tfrz5NWm5PwG-1">
          <mxGeometry x="620" y="230" width="100" height="80" as="geometry"/>
        </mxCell>
        <mxCell id="RPvP8Hq5Tfrz5NWm5PwG-16" value="{ &lt;br style=&quot;font-size: 12px&quot;&gt;&amp;nbsp; char: &#39;e&#39;,&lt;br style=&quot;font-size: 12px&quot;&gt;&amp;nbsp; status: &#39;wrong&#39;&lt;br style=&quot;font-size: 12px&quot;&gt;}" style="rounded=0;whiteSpace=wrap;html=1;fontSize=12;align=left;fillColor=#f8cecc;strokeColor=#b85450;" vertex="1" parent="RPvP8Hq5Tfrz5NWm5PwG-1">
          <mxGeometry x="820" y="230" width="100" height="80" as="geometry"/>
        </mxCell>
        <mxCell id="RPvP8Hq5Tfrz5NWm5PwG-17" value="{ &lt;br style=&quot;font-size: 12px&quot;&gt;&amp;nbsp; char: &#39;r&#39;,&lt;br style=&quot;font-size: 12px&quot;&gt;&amp;nbsp; status: &#39;right&#39;&lt;br style=&quot;font-size: 12px&quot;&gt;}" style="rounded=0;whiteSpace=wrap;html=1;fontSize=12;align=left;fillColor=#d5e8d4;strokeColor=#82b366;" vertex="1" parent="RPvP8Hq5Tfrz5NWm5PwG-1">
          <mxGeometry x="720" y="230" width="100" height="80" as="geometry"/>
        </mxCell>
        <mxCell id="RPvP8Hq5Tfrz5NWm5PwG-18" value="{ &lt;br style=&quot;font-size: 12px&quot;&gt;&amp;nbsp; char: &#39;m&#39;,&lt;br style=&quot;font-size: 12px&quot;&gt;&amp;nbsp; status: &#39;pending&#39;&lt;br style=&quot;font-size: 12px&quot;&gt;}" style="rounded=0;whiteSpace=wrap;html=1;fontSize=12;align=left;fillColor=#f5f5f5;strokeColor=#666666;fontColor=#333333;" vertex="1" parent="RPvP8Hq5Tfrz5NWm5PwG-1">
          <mxGeometry x="920" y="230" width="100" height="80" as="geometry"/>
        </mxCell>
        <mxCell id="RPvP8Hq5Tfrz5NWm5PwG-19" value="Generated Text" style="text;html=1;strokeColor=none;fillColor=none;align=right;verticalAlign=middle;whiteSpace=wrap;rounded=0;fontSize=16;fontStyle=1" vertex="1" parent="RPvP8Hq5Tfrz5NWm5PwG-1">
          <mxGeometry x="470" y="140" width="40" height="20" as="geometry"/>
        </mxCell>
        <mxCell id="RPvP8Hq5Tfrz5NWm5PwG-26" style="edgeStyle=orthogonalEdgeStyle;rounded=0;orthogonalLoop=1;jettySize=auto;html=1;exitX=0.5;exitY=0;exitDx=0;exitDy=0;fontSize=16;" edge="1" parent="RPvP8Hq5Tfrz5NWm5PwG-1" source="RPvP8Hq5Tfrz5NWm5PwG-20" target="RPvP8Hq5Tfrz5NWm5PwG-2">
          <mxGeometry relative="1" as="geometry"/>
        </mxCell>
        <mxCell id="RPvP8Hq5Tfrz5NWm5PwG-20" value="l" style="rounded=0;whiteSpace=wrap;html=1;fontSize=22;align=center;fillColor=#d5e8d4;strokeColor=#82b366;" vertex="1" parent="RPvP8Hq5Tfrz5NWm5PwG-1">
          <mxGeometry x="520" y="360" width="100" height="80" as="geometry"/>
        </mxCell>
        <mxCell id="RPvP8Hq5Tfrz5NWm5PwG-27" style="edgeStyle=orthogonalEdgeStyle;rounded=0;orthogonalLoop=1;jettySize=auto;html=1;exitX=0.5;exitY=0;exitDx=0;exitDy=0;fontSize=16;" edge="1" parent="RPvP8Hq5Tfrz5NWm5PwG-1" source="RPvP8Hq5Tfrz5NWm5PwG-21" target="RPvP8Hq5Tfrz5NWm5PwG-15">
          <mxGeometry relative="1" as="geometry"/>
        </mxCell>
        <mxCell id="RPvP8Hq5Tfrz5NWm5PwG-21" value="o" style="rounded=0;whiteSpace=wrap;html=1;fontSize=22;align=center;fillColor=#d5e8d4;strokeColor=#82b366;" vertex="1" parent="RPvP8Hq5Tfrz5NWm5PwG-1">
          <mxGeometry x="620" y="360" width="100" height="80" as="geometry"/>
        </mxCell>
        <mxCell id="RPvP8Hq5Tfrz5NWm5PwG-28" style="edgeStyle=orthogonalEdgeStyle;rounded=0;orthogonalLoop=1;jettySize=auto;html=1;exitX=0.5;exitY=0;exitDx=0;exitDy=0;fontSize=16;" edge="1" parent="RPvP8Hq5Tfrz5NWm5PwG-1" source="RPvP8Hq5Tfrz5NWm5PwG-22" target="RPvP8Hq5Tfrz5NWm5PwG-17">
          <mxGeometry relative="1" as="geometry"/>
        </mxCell>
        <mxCell id="RPvP8Hq5Tfrz5NWm5PwG-22" value="r" style="rounded=0;whiteSpace=wrap;html=1;fontSize=22;align=center;fillColor=#d5e8d4;strokeColor=#82b366;" vertex="1" parent="RPvP8Hq5Tfrz5NWm5PwG-1">
          <mxGeometry x="720" y="360" width="100" height="80" as="geometry"/>
        </mxCell>
        <mxCell id="RPvP8Hq5Tfrz5NWm5PwG-29" style="edgeStyle=orthogonalEdgeStyle;rounded=0;orthogonalLoop=1;jettySize=auto;html=1;exitX=0.5;exitY=0;exitDx=0;exitDy=0;fontSize=16;" edge="1" parent="RPvP8Hq5Tfrz5NWm5PwG-1" source="RPvP8Hq5Tfrz5NWm5PwG-23" target="RPvP8Hq5Tfrz5NWm5PwG-16">
          <mxGeometry relative="1" as="geometry"/>
        </mxCell>
        <mxCell id="RPvP8Hq5Tfrz5NWm5PwG-23" value="f" style="rounded=0;whiteSpace=wrap;html=1;fontSize=22;align=center;fillColor=#f8cecc;strokeColor=#b85450;" vertex="1" parent="RPvP8Hq5Tfrz5NWm5PwG-1">
          <mxGeometry x="820" y="360" width="100" height="80" as="geometry"/>
        </mxCell>
        <mxCell id="RPvP8Hq5Tfrz5NWm5PwG-30" value="" style="edgeStyle=orthogonalEdgeStyle;rounded=0;orthogonalLoop=1;jettySize=auto;html=1;fontSize=16;" edge="1" parent="RPvP8Hq5Tfrz5NWm5PwG-1" source="RPvP8Hq5Tfrz5NWm5PwG-24" target="RPvP8Hq5Tfrz5NWm5PwG-18">
          <mxGeometry relative="1" as="geometry"/>
        </mxCell>
        <mxCell id="RPvP8Hq5Tfrz5NWm5PwG-24" value="" style="rounded=0;whiteSpace=wrap;html=1;fontSize=22;align=center;fillColor=#f5f5f5;strokeColor=#666666;fontColor=#333333;" vertex="1" parent="RPvP8Hq5Tfrz5NWm5PwG-1">
          <mxGeometry x="920" y="360" width="100" height="80" as="geometry"/>
        </mxCell>
        <mxCell id="RPvP8Hq5Tfrz5NWm5PwG-25" value="Entered text" style="text;html=1;strokeColor=none;fillColor=none;align=right;verticalAlign=middle;whiteSpace=wrap;rounded=0;fontSize=16;fontStyle=1" vertex="1" parent="RPvP8Hq5Tfrz5NWm5PwG-1">
          <mxGeometry x="469.5" y="390" width="40" height="20" as="geometry"/>
        </mxCell>
      </root>
    </mxGraphModel>
  </diagram>
  <diagram name="14 - step" id="SgkxeQXS-NJqhwwqSI7U">
    <mxGraphModel dx="747" dy="359" grid="1" gridSize="10" guides="1" tooltips="1" connect="1" arrows="1" fold="1" page="1" pageScale="1" pageWidth="1920" pageHeight="1200" math="0" shadow="0">
      <root>
        <mxCell id="hGqyCHWDDHtaeCOgTOI--0"/>
        <mxCell id="hGqyCHWDDHtaeCOgTOI--1" parent="hGqyCHWDDHtaeCOgTOI--0"/>
        <mxCell id="hGqyCHWDDHtaeCOgTOI--2" value="Extract the character-by-character rendering to a helper component" style="rounded=0;whiteSpace=wrap;html=1;fontSize=22;align=center;fillColor=#dae8fc;strokeColor=#6c8ebf;" vertex="1" parent="hGqyCHWDDHtaeCOgTOI--1">
          <mxGeometry x="520" y="140" width="490" height="60" as="geometry"/>
        </mxCell>
      </root>
    </mxGraphModel>
  </diagram>
  <diagram id="h96nEfoigyZrvlCZk0fW" name="15 - letter">
    <mxGraphModel dx="996" dy="478" grid="1" gridSize="10" guides="1" tooltips="1" connect="1" arrows="1" fold="1" page="1" pageScale="1" pageWidth="1920" pageHeight="1200" math="0" shadow="0">
      <root>
        <mxCell id="PtxYkWHmcvFLcVRwH1da-0"/>
        <mxCell id="PtxYkWHmcvFLcVRwH1da-1" parent="PtxYkWHmcvFLcVRwH1da-0"/>
        <mxCell id="58rCeSNiRwARvnpG7RrI-6" style="edgeStyle=orthogonalEdgeStyle;rounded=0;orthogonalLoop=1;jettySize=auto;html=1;exitX=0.5;exitY=1;exitDx=0;exitDy=0;fontSize=24;" edge="1" parent="PtxYkWHmcvFLcVRwH1da-1" source="58rCeSNiRwARvnpG7RrI-1" target="58rCeSNiRwARvnpG7RrI-2">
          <mxGeometry relative="1" as="geometry">
            <Array as="points">
              <mxPoint x="680" y="190"/>
              <mxPoint x="340" y="190"/>
            </Array>
          </mxGeometry>
        </mxCell>
        <mxCell id="58rCeSNiRwARvnpG7RrI-7" style="edgeStyle=orthogonalEdgeStyle;rounded=0;orthogonalLoop=1;jettySize=auto;html=1;exitX=0.5;exitY=1;exitDx=0;exitDy=0;fontSize=24;" edge="1" parent="PtxYkWHmcvFLcVRwH1da-1" source="58rCeSNiRwARvnpG7RrI-1" target="58rCeSNiRwARvnpG7RrI-3">
          <mxGeometry relative="1" as="geometry">
            <Array as="points">
              <mxPoint x="680" y="190"/>
              <mxPoint x="570" y="190"/>
            </Array>
          </mxGeometry>
        </mxCell>
        <mxCell id="58rCeSNiRwARvnpG7RrI-8" style="edgeStyle=orthogonalEdgeStyle;rounded=0;orthogonalLoop=1;jettySize=auto;html=1;exitX=0.5;exitY=1;exitDx=0;exitDy=0;fontSize=24;" edge="1" parent="PtxYkWHmcvFLcVRwH1da-1" source="58rCeSNiRwARvnpG7RrI-1" target="58rCeSNiRwARvnpG7RrI-4">
          <mxGeometry relative="1" as="geometry">
            <Array as="points">
              <mxPoint x="680" y="190"/>
              <mxPoint x="800" y="190"/>
            </Array>
          </mxGeometry>
        </mxCell>
        <mxCell id="58rCeSNiRwARvnpG7RrI-9" style="edgeStyle=orthogonalEdgeStyle;rounded=0;orthogonalLoop=1;jettySize=auto;html=1;exitX=0.5;exitY=1;exitDx=0;exitDy=0;fontSize=24;" edge="1" parent="PtxYkWHmcvFLcVRwH1da-1" source="58rCeSNiRwARvnpG7RrI-1" target="58rCeSNiRwARvnpG7RrI-5">
          <mxGeometry relative="1" as="geometry">
            <Array as="points">
              <mxPoint x="680" y="190"/>
              <mxPoint x="1030" y="190"/>
            </Array>
          </mxGeometry>
        </mxCell>
        <mxCell id="58rCeSNiRwARvnpG7RrI-1" value="App" style="rounded=0;whiteSpace=wrap;html=1;fontSize=24;align=center;fillColor=#dae8fc;strokeColor=#6c8ebf;" vertex="1" parent="PtxYkWHmcvFLcVRwH1da-1">
          <mxGeometry x="570" y="80" width="220" height="80" as="geometry"/>
        </mxCell>
        <mxCell id="58rCeSNiRwARvnpG7RrI-2" value="Letter" style="rounded=0;whiteSpace=wrap;html=1;fontSize=24;align=center;fillColor=#dae8fc;strokeColor=#6c8ebf;" vertex="1" parent="PtxYkWHmcvFLcVRwH1da-1">
          <mxGeometry x="230" y="380" width="220" height="80" as="geometry"/>
        </mxCell>
        <mxCell id="58rCeSNiRwARvnpG7RrI-3" value="Letter" style="rounded=0;whiteSpace=wrap;html=1;fontSize=24;align=center;fillColor=#dae8fc;strokeColor=#6c8ebf;" vertex="1" parent="PtxYkWHmcvFLcVRwH1da-1">
          <mxGeometry x="460" y="380" width="220" height="80" as="geometry"/>
        </mxCell>
        <mxCell id="58rCeSNiRwARvnpG7RrI-4" value="Letter" style="rounded=0;whiteSpace=wrap;html=1;fontSize=24;align=center;fillColor=#dae8fc;strokeColor=#6c8ebf;" vertex="1" parent="PtxYkWHmcvFLcVRwH1da-1">
          <mxGeometry x="690" y="380" width="220" height="80" as="geometry"/>
        </mxCell>
        <mxCell id="58rCeSNiRwARvnpG7RrI-5" value="Letter" style="rounded=0;whiteSpace=wrap;html=1;fontSize=24;align=center;fillColor=#dae8fc;strokeColor=#6c8ebf;" vertex="1" parent="PtxYkWHmcvFLcVRwH1da-1">
          <mxGeometry x="920" y="380" width="220" height="80" as="geometry"/>
        </mxCell>
        <mxCell id="58rCeSNiRwARvnpG7RrI-10" value="&amp;nbsp; enteredLetter = &#39;L&#39;,&lt;br&gt;&amp;nbsp; randomLetter = &#39;L&#39; " style="rounded=0;whiteSpace=wrap;html=1;fontSize=16;align=left;fillColor=#e1d5e7;strokeColor=#9673a6;" vertex="1" parent="PtxYkWHmcvFLcVRwH1da-1">
          <mxGeometry x="340" y="240" width="190" height="60" as="geometry"/>
        </mxCell>
        <mxCell id="58rCeSNiRwARvnpG7RrI-11" value="&amp;nbsp; enteredLetter = &#39;o&#39;,&lt;br&gt;&amp;nbsp; randomLetter = &#39;o&#39; " style="rounded=0;whiteSpace=wrap;html=1;fontSize=16;align=left;fillColor=#e1d5e7;strokeColor=#9673a6;" vertex="1" parent="PtxYkWHmcvFLcVRwH1da-1">
          <mxGeometry x="570" y="240" width="190" height="60" as="geometry"/>
        </mxCell>
        <mxCell id="58rCeSNiRwARvnpG7RrI-12" value="&amp;nbsp; enteredLetter = &#39;r&#39;,&lt;br&gt;&amp;nbsp; randomLetter = &#39;b&#39; " style="rounded=0;whiteSpace=wrap;html=1;fontSize=16;align=left;fillColor=#e1d5e7;strokeColor=#9673a6;" vertex="1" parent="PtxYkWHmcvFLcVRwH1da-1">
          <mxGeometry x="800" y="240" width="190" height="60" as="geometry"/>
        </mxCell>
        <mxCell id="58rCeSNiRwARvnpG7RrI-13" value="&amp;nbsp; enteredLetter = &#39;c&#39;,&lt;br&gt;&amp;nbsp; randomLetter = &#39;c&#39; " style="rounded=0;whiteSpace=wrap;html=1;fontSize=16;align=left;fillColor=#e1d5e7;strokeColor=#9673a6;" vertex="1" parent="PtxYkWHmcvFLcVRwH1da-1">
          <mxGeometry x="1030" y="240" width="190" height="60" as="geometry"/>
        </mxCell>
        <mxCell id="58rCeSNiRwARvnpG7RrI-14" value="&lt;i&gt;Logic to compare &#39;enteredLetter&#39; and &#39;randomLetter&#39; and decide what class name to add&lt;/i&gt;" style="text;html=1;strokeColor=none;fillColor=none;align=center;verticalAlign=middle;whiteSpace=wrap;rounded=0;fontSize=16;" vertex="1" parent="PtxYkWHmcvFLcVRwH1da-1">
          <mxGeometry x="235" y="486" width="210" height="30" as="geometry"/>
        </mxCell>
        <mxCell id="58rCeSNiRwARvnpG7RrI-15" value="&lt;i&gt;Logic to compare &#39;enteredLetter&#39; and &#39;randomLetter&#39; and decide what class name to add&lt;/i&gt;" style="text;html=1;strokeColor=none;fillColor=none;align=center;verticalAlign=middle;whiteSpace=wrap;rounded=0;fontSize=16;" vertex="1" parent="PtxYkWHmcvFLcVRwH1da-1">
          <mxGeometry x="465" y="486" width="210" height="30" as="geometry"/>
        </mxCell>
        <mxCell id="58rCeSNiRwARvnpG7RrI-16" value="&lt;i&gt;Logic to compare &#39;enteredLetter&#39; and &#39;randomLetter&#39; and decide what class name to add&lt;/i&gt;" style="text;html=1;strokeColor=none;fillColor=none;align=center;verticalAlign=middle;whiteSpace=wrap;rounded=0;fontSize=16;" vertex="1" parent="PtxYkWHmcvFLcVRwH1da-1">
          <mxGeometry x="695" y="486" width="210" height="30" as="geometry"/>
        </mxCell>
        <mxCell id="58rCeSNiRwARvnpG7RrI-17" value="&lt;i&gt;Logic to compare &#39;enteredLetter&#39; and &#39;randomLetter&#39; and decide what class name to add&lt;/i&gt;" style="text;html=1;strokeColor=none;fillColor=none;align=center;verticalAlign=middle;whiteSpace=wrap;rounded=0;fontSize=16;" vertex="1" parent="PtxYkWHmcvFLcVRwH1da-1">
          <mxGeometry x="925" y="486" width="210" height="30" as="geometry"/>
        </mxCell>
      </root>
    </mxGraphModel>
  </diagram>
</mxfile>
